<svg xmlns="http://www.w3.org/2000/svg" width="25" height="24" fill="none" viewBox="0 0 25 24">
  <mask id="a" width="25" height="24" x="0" y="0" maskUnits="userSpaceOnUse" style="mask-type:alpha">
    <path fill="#D9D9D9" d="M.249 0h24v24h-24z"/>
  </mask>
  <g mask="url(#a)">
    <path fill="#2A3647" d="M11.248 13h-5a.967.967 0 0 1-.712-.287.968.968 0 0 1-.287-.713.97.97 0 0 1 .287-.713.967.967 0 0 1 .713-.287h5V6a.97.97 0 0 1 .287-.713.968.968 0 0 1 .713-.287.97.97 0 0 1 .712.287c.192.192.287.43.287.713v5h5a.97.97 0 0 1 .713.287c.192.192.288.43.288.713s-.096.52-.288.713a.967.967 0 0 1-.712.287h-5v5c0 .283-.096.52-.288.712a.967.967 0 0 1-.713.288.968.968 0 0 1-.712-.288.968.968 0 0 1-.287-.712v-5Z"/>
  </g>
</svg>
